<?xml version="1.0" encoding="utf-8"?>
<svg version="1.1" id="Layer_1" xmlns="http://www.w3.org/2000/svg" xmlns:xlink="http://www.w3.org/1999/xlink" x="0px" y="0px"
	 viewBox="0 0 104.9 17.5" style="enable-background:new 0 0 104.9 17.5;" xml:space="preserve">
<style type="text/css">
	.st0{fill:url(#SVGID_1_);}
	.st1{fill:#696C74;}
</style>
<title>MB</title>
<linearGradient id="SVGID_1_" gradientUnits="userSpaceOnUse" x1="0.4555" y1="259.8111" x2="16.9155" y2="265.8011" gradientTransform="matrix(1 0 0 1 0 -254)">
	<stop  offset="0" style="stop-color:#B52A72"/>
	<stop  offset="0.31" style="stop-color:#CE3C4B"/>
	<stop  offset="0.68" style="stop-color:#E55A26"/>
	<stop  offset="1" style="stop-color:#F5891F"/>
</linearGradient>
<path class="st0" d="M16.8,11.3c0,0.2-0.1,0.4-0.1,0.6c-0.2,0.6-0.4,1.1-0.6,1.6v0.1c0-0.1,0.1-0.3,0.1-0.3c0.1-0.3,0.3-0.7,0.4-1
	C16.6,12,16.7,11.6,16.8,11.3z M16,9.6c0,0.1,0,0.2,0,0.3l0,0C16,9.7,16,9.7,16,9.6L16,9.6z M8.5,2.9c0.3,0,0.7,0,1,0.1
	c0.9,0.1,1.8,0.5,2.5,0.9c-0.5-0.4-1.1-0.7-1.8-0.9C9.7,2.9,9.1,2.8,8.5,2.9z M6.9,3.1C7.5,3,8,2.9,8.6,2.9c-0.5,0-1,0.1-1.5,0.2
	H6.9z M10.6,3.1c-0.5-0.2-1-0.2-1.5-0.2C10,3,11,3.3,11.8,3.7C11.5,3.4,11.1,3.2,10.6,3.1L10.6,3.1z M12.6,16.6
	c-0.2,0.1-0.4,0.2-0.6,0.3C12.2,16.8,12.4,16.7,12.6,16.6L12.6,16.6z M9.3,0.3c0.5,0,0.9,0,1.4,0C10.3,0.2,10,0.2,9.6,0.1
	C8.9,0,8.3,0,7.6,0.1C8.2,0.1,8.8,0.2,9.3,0.3L9.3,0.3z M16.7,5.7c-0.1-0.2-0.2-0.4-0.2-0.6c-0.7-1.3-1.7-2.4-3-3.2l0.2,0.2
	c0.3,0.2,0.6,0.4,0.8,0.7c-0.2-0.2-0.5-0.4-0.8-0.6l0.2,0.1C14.3,2.6,14.7,3,15,3.5l-0.4-0.4l0.3,0.4c0.7,0.7,1.2,1.6,1.7,2.5
	C16.9,6.7,17,6.9,17,6.8c0-0.3,0-0.6-0.2-0.8c-0.1-0.3-0.3-0.7-0.5-1C16.5,5.1,16.6,5.4,16.7,5.7L16.7,5.7z M9.9,0.5L9.9,0.5
	c1,0.1,1.9,0.3,2.8,0.7c-1-0.5-2.2-0.8-3.4-0.8C9.6,0.4,9.7,0.5,9.9,0.5L9.9,0.5z M9.2,0.3h0.1H9.1H9.2z M11,15.5
	c0.8-0.3,1.5-0.8,2.1-1.5c-0.3,0.3-0.7,0.6-1.1,0.9c0,0,0,0-0.1,0H12l0,0c-0.3,0.2-0.6,0.4-0.9,0.5L11,15.5z M14.3,6.3
	c-0.4-0.8-0.9-1.4-1.6-2c-0.2-0.1-0.4-0.3-0.6-0.4c0.8,0.5,1.5,1.3,2,2.1c0.8,1.4,1.1,3.1,0.8,4.7c0,0.2-0.1,0.4-0.1,0.5
	c0.1-0.2,0.1-0.4,0.2-0.7c0.1-0.8,0.1-1.6,0-2.5c0-0.2,0-0.5-0.1-0.7s-0.1-0.4-0.2-0.6c-0.5-1.3-1.5-2.4-2.7-3.1l-0.1-0.1
	C12.9,4.3,13.8,5.2,14.3,6.3z M14.8,6.3c-0.1-0.1-0.2-0.3-0.2-0.4c0,0.1,0.1,0.2,0.1,0.2s0.2,0.4,0.3,0.6
	C14.9,6.6,14.8,6.4,14.8,6.3z M15.2,8c0-0.4-0.1-0.8-0.2-1.1c0-0.1-0.1-0.3-0.2-0.4C15,7,15.1,7.5,15.2,8L15.2,8z M12.3,14.3
	c-0.1,0.1-0.2,0.1-0.4,0.2c1-0.4,1.9-1.1,2.5-2c-0.4,0.8-1,1.5-1.6,2.1c-0.2,0.2-0.4,0.4-0.6,0.5l-0.3,0.2c0.3-0.2,0.6-0.4,0.9-0.7
	l0,0c0.4-0.3,0.7-0.6,1-1c-0.5,0.7-1.2,1.4-2,1.8l-0.1,0.1c0.8-0.4,1.6-1,2.2-1.8l0.1-0.1c0.4-0.7,0.7-1.5,0.9-2.4
	C14.4,12.6,13.5,13.6,12.3,14.3z M15.2,7.9c0,0.2,0,0.4,0.1,0.6c0-0.2,0-0.3,0-0.5L15.2,7.9z M11,15.6L11,15.6L11,15.6L11,15.6z
	 M5.5,1.3C5.8,1.2,6.1,1.1,6.4,1L5.9,1.1L5.5,1.3z M9.2,2.8c-0.5,0-1.1,0-1.6,0.1C8.1,2.8,8.6,2.8,9.2,2.8z M17.1,11.2
	c-0.2,0.7-0.4,1.4-0.8,2.1c0.4-1,0.7-2,0.8-3.1c0.1-1,0-2-0.3-2.9c-0.1-0.2-0.1-0.4-0.2-0.5c0.4,1.1,0.5,2.3,0.4,3.4
	c-0.1,0.6-0.2,1.2-0.4,1.8l0,0c0.1-0.5,0.2-1,0.3-1.4c0.1-0.3,0.1-0.7,0.1-1c0,0.1,0,0.2,0,0.3c0,0.2,0,0.5,0,0.7
	c0,0.3-0.1,0.5-0.2,0.8v-0.1c0-0.1,0-0.1,0-0.2c-0.3,1.5-1,2.9-2,4c0.4-0.5,0.8-1,1.1-1.6c-0.4,0.8-1,1.5-1.7,2.1
	c0.3-0.3,0.5-0.5,0.7-0.8c1-1.1,1.6-2.4,2-3.9c0-0.2-0.1-0.4-0.2-0.2c-0.2,0.9-0.5,1.8-0.9,2.7c-0.2,0.4-0.5,0.9-0.8,1.2
	c-0.1,0,0.4-0.6,0.7-1.2c0.2-0.4,0.4-0.9,0.5-1.3L16,12.6l0.1-0.4c0.1-0.3,0.2-0.7,0.3-1c0.1-0.6,0.1-1.2,0.1-1.8c0,0.2,0,0.4,0,0.7
	l0,0c-0.1,1-0.4,2.2-0.9,3.2l0,0c-1,1.8-2.8,3.2-4.8,3.7c-0.1,0-0.2,0-0.1,0c1.9-0.6,3.4-1.8,4.5-3.4c0.2-0.3,0.3-0.7,0.5-1
	c0.2-0.4,0.3-0.9,0.4-1.3l0,0l0,0c0,0.1,0,0.1-0.1,0.2v0.2l0,0c-0.1,0.3-0.2,0.6-0.3,1c-0.9,2.1-2.7,3.7-4.9,4.3c0,0,0.1,0,0.1-0.1
	c1-0.3,1.9-0.8,2.6-1.6c-0.4,0.4-0.9,0.7-1.3,0.9l0,0c-0.4,0.2-0.7,0.4-1.1,0.5c0.1-0.1,0.2-0.1,0.3-0.2l0.8-0.5h-0.1
	c-0.5,0.3-1.1,0.4-1.6,0.5l0.1-0.1c0.4-0.1,0.8-0.2,1.1-0.4l0,0h-0.1c0.1,0,0.1,0,0.1,0c0.3-0.1,0.6-0.3,0.9-0.5
	c0.9-0.6,1.7-1.4,2.2-2.4c0.6-1,1-2.2,1.1-3.4c0,0.5-0.1,0.9-0.2,1.4l0,0c0.1-0.5,0.2-1,0.2-1.5c0-0.2,0-0.4,0-0.6
	c0-0.1-0.1-0.2-0.1-0.3c0.1,1.4-0.3,2.8-1,4l0.1-0.2c0,0,0.2-0.6,0.4-1.2c0.1-0.4,0.2-0.8,0.3-1.3l-0.1,0.4v-0.1
	c-0.1,0.2-0.1,0.5-0.2,0.7v0.2l0,0c-0.2,0.7-0.6,1.3-1,1.9c-0.2,0.2-0.3,0.5-0.5,0.7c0.1-0.1,0.2-0.3,0.2-0.4
	c-0.6,0.8-1.5,1.5-2.4,2c-0.1,0-0.1-0.1-0.1-0.1c0.8-0.4,1.5-1,2.1-1.7l-0.1,0.2l0.2-0.3c0.4-0.5,0.8-1.1,1-1.6
	c0-0.1,0.1-0.3,0.1-0.4c-0.2,0.6-0.5,1.1-0.9,1.7c0.8-1.3,1.3-2.8,1.4-4.3c0-0.4,0-0.7-0.1-1.1c0-0.1,0-0.3,0-0.4V7.2v0.2
	c-0.2-1-0.7-2-1.3-2.9l-0.1-0.1c0.3,0.4,0.5,0.9,0.7,1.4l-0.2-0.3V5.4c-0.1-0.2-0.3-0.5-0.4-0.7c0.1,0.2,0.2,0.4,0.3,0.5
	c0-0.1-0.1-0.1-0.1-0.1c-0.2-0.4-0.5-0.8-0.9-1l0,0L13.1,4c-0.5-0.5-1.2-1-1.9-1.2c-0.3-0.1-0.5-0.2-0.8-0.3
	c0.2,0.1,0.4,0.2,0.6,0.2l0.2,0.1c0.6,0.3,1.2,0.6,1.7,1.1L13.1,4l0.1,0.1l0,0c0.2,0.2,0.4,0.4,0.5,0.6l0,0v0.1
	C13.9,5,14,5.3,14.2,5.5c0.1,0.3,0.2,0.6,0.3,0.9c-0.5-1.2-1.3-2.3-2.5-3c-0.8-0.5-1.6-0.8-2.5-1C8.6,2.2,7.7,2.3,6.9,2.6l0.4-0.1
	c-0.2,0-0.4,0.1-0.5,0.2c-1.6,0.4-3,1.5-3.9,2.9C2.7,6,2.5,6.5,2.4,7c0.2-0.7,0.6-1.3,1-1.9C3.3,5.2,3.2,5.4,3.1,5.6
	C3,5.8,2.9,6.1,2.8,6.3c0.5-1.1,1.3-2,2.4-2.6C5.1,3.8,4.9,3.9,4.8,4C3.3,5.2,2.4,7.1,2.5,9c0.1,0.4,0.2,0.7,0.3,1.1
	c0.3,0.9,0.8,1.8,1.5,2.5c-0.2-0.2-0.4-0.4-0.5-0.6c-0.5-0.7-0.9-1.4-1.2-2.2c0.3,1.2,1,2.3,1.8,3.1c0,0-0.3-0.1-0.3-0.2
	c-0.5-0.4-0.9-1-1.3-1.5c0.2,0.5,0.5,0.9,0.8,1.3c-0.1-0.2-0.3-0.4-0.4-0.5c-0.4-0.5-0.6-1.1-0.8-1.8v0.1c0.3,1,0.7,1.9,1.4,2.7
	l-0.1-0.1c-0.9-1-1.5-2.2-1.6-3.5c-0.1-1,0.1-2.1,0.5-3C2.4,6.8,2.2,7.2,2.1,7.6C2,7.9,2,8.2,2,8.5s0,0.7,0,1l0,0
	c0.1,1.4,0.6,2.7,1.6,3.7c0.5,0.5,1,0.9,1.6,1.2c0.2,0.1,0.2,0.2,0.3,0.3l0.2,0.1l0.1-0.1h0.3c-0.1-0.1-0.7-0.4-0.7-0.5
	c0.3,0.1,0.7,0.2,1,0.4c0.2,0.1,0.4,0.1,0.6,0.1v-0.1c0,0,0.2,0.1,0.3,0.1s0,0,0,0c0.4,0.1,0.7,0.2,1.1,0.4c0.3,0.1,0.5,0.4,0.7,0.7
	l0,0c0.1,0.1,0.1,0.3,0.1,0.4c-0.1,0.3,0.1,0.3,0,0.5c0,0.1,0,0.1,0,0.2l0,0c0,0.1-0.1,0.2-0.1,0.3l0,0.1l0,0c0.1,0,0,0.1-0.2,0.1
	c-0.1,0-0.1,0.1-0.2,0.1c-0.2,0-0.8,0-0.9,0s-0.4-0.1-0.6-0.1s-0.4-0.1-0.7-0.1C6.3,17.2,6,17.1,5.8,17c-0.1-0.1-0.2-0.1-0.3-0.2
	l0,0l-2.3-1C1.2,14.2,0,11.7,0,9.1c0-2.2,0.7-4.3,2.1-6c-0.4,0.6-0.7,1.2-1,1.8L1,5.1c0.6-1.3,1.5-2.4,2.6-3.3
	C2.8,2.4,2.1,3.1,1.6,4C1.5,4.2,1.3,4.5,1.2,4.8c0.5-1,1.3-1.8,2.2-2.5l0,0l0.3-0.2C2.5,3,1.5,4.3,1.1,5.7v0.2
	c0.5-1.3,1.3-2.5,2.4-3.4C2.7,3.1,2.1,3.9,1.7,4.8C1.6,5.1,1.5,5.3,1.4,5.6c0.5-1.1,1.1-2,2-2.8c0.6-0.5,1.2-1,1.9-1.3L6,1.3
	C6.8,1,7.6,0.9,8.4,0.9C7.8,0.9,7.1,1,6.5,1.1L6.9,1H6.6c0.7-0.2,1.3-0.3,2-0.3c0.2,0,0.4,0,0.7,0c-1.8-0.2-3.5,0.2-5,1.2L4.1,2
	L3.7,2.2c1.2-1.1,2.8-1.7,4.4-1.9c0.3,0,0.7,0,1,0H8.9H8.7h0.4l0.6,0.1c-0.3,0-0.5,0-0.8,0c0.7,0,1.4,0.1,2.1,0.4
	c-0.9-0.2-1.7-0.2-2.6-0.1H8.2H8h0.5h0.6c0.5,0,1,0.1,1.5,0.2c-0.4-0.1-0.7-0.2-1.1-0.2c1,0.1,1.9,0.4,2.8,0.8
	c-0.7-0.4-1.5-0.6-2.4-0.7l0,0L9.3,0.7h0.3H9.2c-0.3,0-0.6,0-0.9-0.1c-0.7,0-1.3,0.1-2,0.3c0.4-0.1,0.8-0.2,1.2-0.2
	c0.4,0,0.7-0.1,1.1-0.1H8.5c0.4,0,0.8,0,1.1,0.1c-0.5,0-0.9,0-1.4,0c0.1,0,0.1-0.1,0-0.1c-1,0.1-1.9,0.3-2.8,0.6L5.2,1.3
	C6,1,6.9,0.8,7.8,0.8H8c1.3,0,2.7,0.2,3.9,0.8C11,1.2,10,0.9,9,0.9c-0.3,0-0.6,0-0.9,0c1.1,0,2.2,0.3,3.2,0.8
	c1.3,0.5,2.5,1.4,3.4,2.6l0.2,0c0.2,0.3,0.5,0.7,0.7,1l0.2,0.3C15.9,5.8,16,6,16,6.2c0-0.1-0.1-0.3-0.1-0.4c0.4,0.9,0.6,1.9,0.8,2.9
	l0,0V8.6c0-0.4,0-0.7-0.1-1.1v0.1V7.5c0-0.2-0.1-0.5-0.2-0.7l-0.1-0.2v0.1c0.1,0.3,0.2,0.6,0.2,0.9l0,0c0-0.2-0.1-0.3-0.2-0.5
	c0,0.1,0,0.2,0.1,0.3c0-0.1-0.1-0.3-0.1-0.4s-0.1-0.5-0.2-0.7c-0.2-0.4-0.4-0.8-0.6-1.2l0,0c0.2,0.3,0.3,0.5,0.4,0.8
	c-0.1-0.2-0.1-0.3-0.2-0.5S15.5,5,15.3,4.8c-0.3-0.6-0.7-1.2-1.1-1.7c0.7,0.6,1.3,1.4,1.7,2.3C16,5.6,16.1,5.8,16.1,6
	c-0.3-0.9-0.7-1.8-1.3-2.6c0.4,0.5,0.8,1,1.1,1.6c-0.1-0.2-0.3-0.4-0.4-0.6l0,0l0.2,0.3C17.1,6.5,17.6,8.9,17.1,11.2z M0.2,9.7
	L0.2,9.7V9.6C0.2,9.6,0.2,9.6,0.2,9.7z M0.8,6.1C0.6,6.6,0.4,7.2,0.3,7.7C0.2,8.1,0.2,8.5,0.2,8.9V9V8.9V9c0-0.6,0.1-1.2,0.2-1.7
	c0-0.1,0-0.1,0-0.2C0.5,6.8,0.6,6.5,0.8,6.1z M4,14.1c0.4,0.4,0.8,0.7,1.3,0.9h0.1C4.8,14.8,4.4,14.5,4,14.1L4,14.1z M3.7,15
	c0.2,0.1,0.3,0.2,0.5,0.3l0,0l-0.3-0.2L3.7,15z M2.7,12L2.7,12L2.7,12z M2.7,8.1c0-0.2,0.1-0.4,0.1-0.6c0,0.1-0.1,0.3-0.1,0.4V8.1z
	 M2.7,3.5C3,3.2,3.3,3,3.6,2.8l0.1-0.1c0.6-0.5,1.4-0.8,2.1-1.1c0.3-0.1,0.5-0.2,0.8-0.2c-1,0.2-2,0.6-2.8,1.2l0.1-0.1L3.7,2.6
	L3.4,2.8L3.2,3C3,3.1,2.9,3.3,2.7,3.5L2.7,3.5z M6,2.9C5.2,3.2,4.5,3.7,3.9,4.3C3.7,4.5,3.5,4.8,3.3,5C3.1,5.3,2.9,5.6,2.7,5.9
	l0.2-0.2c-0.3,0.5-0.5,1-0.6,1.5c0,0.1,0,0.1,0,0.2C2.1,8.2,2,9,2.1,9.8c0,0.1,0.1,0.2,0.1,0.4s0.1,0.4,0.1,0.6l0,0
	c0-0.2-0.1-0.3-0.1-0.5C2.1,9.8,2,9.2,2.1,8.7c0.1-1.3,0.5-2.5,1.3-3.5C3.6,5,3.7,4.8,3.9,4.6c0.6-0.6,1.2-1,1.9-1.4
	C5.8,3,5.9,2.9,6,2.9L6,2.9z M2.6,4.9L2.6,4.9L2.6,4.9z M9,1.2C7.4,1,5.8,1.4,4.4,2.3c-1.2,0.8-2.2,2-2.6,3.4v0.1
	C2.2,4.6,3,3.5,4,2.7C3.3,3.3,2.8,4,2.4,4.8C2.3,5,2.2,5.3,2.1,5.5c1.1-2.6,3.6-4.3,6.5-4.4C8.6,1.2,8.8,1.2,9,1.2L9,1.2z M13.7,4.2
	c0.2,0.2,0.5,0.5,0.7,0.7s0.4,0.5,0.5,0.7c-0.3-0.4-0.6-0.8-0.9-1.2c0.4,0.4,0.7,0.8,1,1.2V5.5c-0.8-1.2-1.8-2.2-3.1-2.9l0,0
	c0.8,0.4,1.5,1,2.1,1.7c-0.3-0.4-0.7-0.7-1.1-1c-0.2-0.2-0.4-0.3-0.6-0.4C12.8,3.3,13.3,3.7,13.7,4.2c-0.6-0.5-1.2-1-1.8-1.4l0,0
	c0.9,0.5,1.7,1.2,2.4,2c0.2,0.2,0.4,0.5,0.5,0.7l-0.1-0.1C14.4,5,14.1,4.6,13.7,4.2L13.7,4.2z M15.2,6.7c0-0.1-0.1-0.2-0.1-0.4
	C15,6,14.8,5.7,14.6,5.4c0,0.1,0.1,0.2,0.2,0.3L15,6C15,6.3,15.1,6.5,15.2,6.7L15.2,6.7z M15.8,11.5L15.8,11.5
	c-0.1,0.5-0.3,1-0.6,1.5C15.4,12.6,15.6,12.1,15.8,11.5L15.8,11.5z M15.9,11.6L15.9,11.6c0,0.1-0.1,0.2-0.1,0.4
	C15.8,11.9,15.8,11.7,15.9,11.6L15.9,11.6L15.9,11.6z M15.9,11.4L15.9,11.4L15.9,11.4z M15.9,6.9c-0.1-0.2-0.2-0.4-0.2-0.6
	C15.7,6.5,15.8,6.7,15.9,6.9L15.9,6.9z M16.2,9.9c0,0.1,0,0.1,0,0.2c0,0.2,0,0.5-0.1,0.7c0-0.1,0-0.2,0-0.2S16.1,10.1,16.2,9.9
	L16.2,9.9z M16.5,9c0-0.2,0-0.4-0.1-0.5c-0.1-0.6-0.3-1.2-0.6-1.8c0,0,0,0,0-0.1C15.9,6.8,15.9,7,16,7.2c0-0.2-0.1-0.4-0.2-0.6
	c0.4,1,0.6,2,0.6,3.1C16.5,9.5,16.5,9.3,16.5,9L16.5,9z M16.9,7.7c0,0.2,0.1,0.5,0.1,0.7s0.1,0.6,0.1,0.9c0,0,0,0,0,0.1
	c0-0.3,0-0.6,0-0.9s0-0.3-0.1-0.5L16.9,7.7z"/>
<path class="st1" d="M61.2,3.5h4.5c1.8,0,3.6,0.8,3.6,2.9c0,1.2-0.8,2.3-2,2.5l0,0c1.4,0.1,2.5,1.4,2.5,2.8c0,2.5-2.2,3.3-4.4,3.3
	h-4.2V3.5z M63.3,8.2h1.9c1.4,0,2.1-0.6,2.1-1.5S66.6,5.3,65,5.3h-1.7C63.3,5.3,63.3,8.2,63.3,8.2z M63.3,13.3h1.9
	c1.1,0,2.5-0.2,2.5-1.7c0-1.2-0.8-1.6-2.5-1.6h-2L63.3,13.3z"/>
<path class="st1" d="M76.7,3.2c3.2-0.2,5.9,2.2,6.2,5.3c0,0.3,0,0.5,0,0.8c0.1,3.3-2.4,6-5.7,6.1c-0.2,0-0.3,0-0.5,0
	c-3.2,0.2-5.9-2.3-6.1-5.5c0-0.2,0-0.3,0-0.5c-0.2-3.2,2.2-6,5.4-6.2C76.2,3.2,76.5,3.2,76.7,3.2z M76.7,13.5c2.2,0,4-1.8,4-4
	c0-0.1,0-0.2,0-0.3c0-2.2-1.8-4-4-4s-4,1.8-4,4c-0.2,2.2,1.5,4.1,3.7,4.3C76.5,13.5,76.6,13.5,76.7,13.5L76.7,13.5z"/>
<path class="st1" d="M84.2,3.5h4.6c3,0,5.9,1.9,5.9,5.8s-3.4,5.8-6.1,5.8h-4.3L84.2,3.5z M87.8,13.2c2.6,0,4.7-1.1,4.7-3.9
	s-1.8-3.9-4.4-3.9h-1.9v7.9h1.6V13.2z"/>
<path class="st1" d="M98.5,10.1l-4.4-6.6h2.6l2.8,4.6l2.9-4.6h2.5l-4.4,6.6v5h-2.1L98.5,10.1z"/>
<path class="st1" d="M20.7,3.5h2l3.9,9.1l0,0l4-9.1h2v11.6h-1.3V5.4l0,0l-4.2,9.7h-0.8l-4.2-9.7l0,0v9.7h-1.4V3.5z"/>
<path class="st1" d="M34.5,3.5h1.4v11.6h-1.4V3.5z"/>
<path class="st1" d="M37.8,3.5h1.7l6.7,9.6l0,0V3.5h1.4v11.6h-1.7l-6.7-9.6l0,0v9.6h-1.4C37.8,15.1,37.8,3.5,37.8,3.5z"/>
<path class="st1" d="M49.7,3.5h4.4c3.1-0.1,5.6,2.3,5.7,5.4c0,0.1,0,0.3,0,0.4c0.1,3.1-2.3,5.7-5.3,5.8c-0.1,0-0.3,0-0.4,0h-4.4
	C49.7,15.1,49.7,3.5,49.7,3.5z M51.1,13.8h2.6c2.7,0,4.7-1.3,4.7-4.5s-2-4.5-4.7-4.5h-2.6V13.8z"/>
</svg>